/* XPM */
static char * foobillard_32_xpm[] = {
"32 32 257 2",
"  	c None",
". 	c #020602",
"+ 	c #C2AA32",
"@ 	c #A69637",
"# 	c #8A7A2A",
"$ 	c #04220A",
"% 	c #726828",
"& 	c #044C14",
"* 	c #CAC63A",
"= 	c #665E22",
"- 	c #025A1A",
"; 	c #D6D6C6",
"> 	c #625A22",
", 	c #E2DA48",
"' 	c #02661A",
") 	c #FEFE96",
"! 	c #026E1E",
"~ 	c #F6E840",
"{ 	c #164E16",
"] 	c #56662A",
"^ 	c #4E5E1E",
"/ 	c #02761E",
"( 	c #F2F27A",
"_ 	c #BEAA34",
": 	c #323212",
"< 	c #027E22",
"[ 	c #26541C",
"} 	c #265A1E",
"| 	c #8A8C2E",
"1 	c #CAB635",
"2 	c #526A26",
"3 	c #CECEAE",
"4 	c #B2B2A6",
"5 	c #C2C2AE",
"6 	c #F2F24A",
"7 	c #2E521E",
"8 	c #727E26",
"9 	c #AE9E35",
"0 	c #FEFE6A",
"a 	c #040E06",
"b 	c #1E260E",
"c 	c #929282",
"d 	c #FEFEC3",
"e 	c #028622",
"f 	c #DAC842",
"g 	c #3E6E26",
"h 	c #A29E36",
"i 	c #32561E",
"j 	c #FEFED2",
"k 	c #FEF647",
"l 	c #205E1C",
"m 	c #043E12",
"n 	c #66762E",
"o 	c #1E1E0A",
"p 	c #326A22",
"q 	c #928A32",
"r 	c #CEC23E",
"s 	c #444216",
"t 	c #BEBE6A",
"u 	c #E2E26A",
"v 	c #FEF656",
"w 	c #998A35",
"x 	c #FEFE9A",
"y 	c #727232",
"z 	c #3A561E",
"A 	c #969666",
"B 	c #DDD244",
"C 	c #021206",
"D 	c #FEFEDE",
"E 	c #9A9A36",
"F 	c #D2D272",
"G 	c #E8DC40",
"H 	c #B6A237",
"I 	c #EED23A",
"J 	c #1E3A16",
"K 	c #626628",
"L 	c #FEFEA6",
"M 	c #18601E",
"N 	c #CEB636",
"O 	c #062C0E",
"P 	c #B2B25E",
"Q 	c #6E6E24",
"R 	c #0E160A",
"S 	c #534E1C",
"T 	c #18280E",
"U 	c #FAFA80",
"V 	c #626E56",
"W 	c #767E26",
"X 	c #7E722A",
"Y 	c #F2F2E6",
"Z 	c #FEFE88",
"` 	c #A08E2E",
" .	c #BAB632",
"..	c #3E5E22",
"+.	c #D6D63E",
"@.	c #C3AE37",
"#.	c #DBC237",
"$.	c #8A8228",
"%.	c #065E1A",
"&.	c #028222",
"*.	c #FAF65E",
"=.	c #FEFE47",
"-.	c #DADA56",
";.	c #D2BA34",
">.	c #666A2E",
",.	c #E2D638",
"'.	c #C6C65E",
").	c #FAFAE6",
"!.	c #828A2E",
"~.	c #443E16",
"{.	c #0A6A1E",
"].	c #021E0A",
"^.	c #027A1E",
"/.	c #969242",
"(.	c #FEFEAA",
"_.	c #827E32",
":.	c #CAB236",
"<.	c #FEF24A",
"[.	c #B2A63A",
"}.	c #AA9636",
"|.	c #E1CE3D",
"1.	c #EEE856",
"2.	c #A29237",
"3.	c #928226",
"4.	c #BEA635",
"5.	c #F2DA3A",
"6.	c #124E16",
"7.	c #1A1E0E",
"8.	c #B6AC42",
"9.	c #FEFEB3",
"0.	c #045416",
"a.	c #02340E",
"b.	c #3A3A1A",
"c.	c #0E6E1E",
"d.	c #7A6A2A",
"e.	c #B8A634",
"f.	c #FEFC5A",
"g.	c #CEC248",
"h.	c #5C6026",
"i.	c #AD9A36",
"j.	c #B2A236",
"k.	c #80762B",
"l.	c #4C4A1A",
"m.	c #FEFA56",
"n.	c #79762A",
"o.	c #565622",
"p.	c #2E5A22",
"q.	c #EEE244",
"r.	c #E2D64A",
"s.	c #C5B63F",
"t.	c #909232",
"u.	c #BAAA3B",
"v.	c #D2C646",
"w.	c #0E5A1A",
"x.	c #686624",
"y.	c #626E32",
"z.	c #C6B232",
"A.	c #86862A",
"B.	c #222A0E",
"C.	c #E2E24A",
"D.	c #FEFE6E",
"E.	c #D1BE3E",
"F.	c #E2E25A",
"G.	c #A69642",
"H.	c #62663A",
"I.	c #FEFE90",
"J.	c #076E1E",
"K.	c #4C4616",
"L.	c #FAFAF2",
"M.	c #0A621A",
"N.	c #9D8E35",
"O.	c #0E1A0A",
"P.	c #FEFEBB",
"Q.	c #FEFE5F",
"R.	c #061206",
"S.	c #E6CA36",
"T.	c #726E22",
"U.	c #16561A",
"V.	c #EAE24A",
"W.	c #D6BE36",
"X.	c #32621E",
"Y.	c #B8A63C",
"Z.	c #8A8434",
"`.	c #12661E",
" +	c #020A03",
".+	c #C5B23C",
"++	c #E7D63D",
"@+	c #867E2E",
"#+	c #CAB63E",
"$+	c #FEFE7C",
"%+	c #24220E",
"&+	c #16160A",
"*+	c #938631",
"=+	c #225A2A",
"-+	c #BEAE3A",
";+	c #6E6226",
">+	c #B29E37",
",+	c #BEB242",
"'+	c #867A2A",
")+	c #FEFA48",
"!+	c #54521E",
"~+	c #FEFE54",
"{+	c #F6F252",
"]+	c #D2C232",
"^+	c #79722B",
"/+	c #5E6824",
"(+	c #6E7426",
"_+	c #A29A2A",
":+	c #0A1A0A",
"<+	c #F6E23E",
"[+	c #FEFE66",
"}+	c #DCD24C",
"|+	c #056A1D",
"1+	c #02621A",
"2+	c #9D8E3B",
"3+	c #FEFE75",
"4+	c #AA9A3E",
"5+	c #FEFE82",
"6+	c #0A3A12",
"7+	c #6E6A26",
"8+	c #7E6E26",
"9+	c #B1A23E",
"0+	c #E2DE40",
"a+	c #091608",
"b+	c #E6CE3A",
"c+	c #262610",
"d+	c #6A6227",
"e+	c #FEFEEE",
"f+	c #FEFEF5",
"g+	c #BEAA3A",
"h+	c #EFEE53",
"i+	c #D5C23B",
"j+	c #E2D242",
"k+	c #FAF256",
"l+	c #A29636",
"m+	c #DED646",
"n+	c #0A721E",
"o+	c #9E9236",
"p+	c #027A22",
"q+	c #CABA36",
"r+	c #767A2A",
"s+	c #A69A3E",
"t+	c #FCF64E",
"u+	c #FEFE4E",
"v+	c #8C7E2A",
"w+	c #02721E",
"x+	c #A2A23A",
"y+	c #F0D634",
"z+	c #9E922A",
"A+	c #80822C",
"B+	c #EEDE42",
"C+	c #3A3E1A",
"D+	c #786E28",
"E+	c #D6CA44",
"F+	c #86822C",
"G+	c #CABA3E",
"H+	c #065A1A",
"&.&.&.&.&.&.&.&.&.&.&.&.&.&.&.&.&.&.&.&.&.&.&.&.&.&.&.&.&.&.&.&.",
"e e e e e e e e e e e e e e e e e e e e e e e e e e e e e e e e ",
"&.&.&.&.&.&.&.&.&.&.&.p+J.{.{.{.{.{.{.{.J.p+&.&.&.&.&.&.&.&.&.e ",
"&.&.&.&.&.&.&.&.&.&.' X.n r+r+_.F+| t.t.8 { &.&.&.&.&.&.&.&.&.&.",
"&.&.&.&.&.&.&.&.^.l @+9+8.H j._ z.1 i+E+k.T e &.&.&.&.&.&.&.&.&.",
"&.&.&.&.&.&.&.&.M (+}.9+8. .@.u.@.W.v.m+S 6.e &.&.&.&.&.&.&.e e ",
"e e e e e e e / >.2.l+i.4.s.E.E.:.;.b+|.b J.e e e e e e e &.&.e ",
"&.&.&.&.&.&.&.M.q 9 >+>+9+-+* }+S.#.++[.$ / e &.&.&.&.&.&.&.e &.",
"&.&.&.&.&.&.^.[ }.>+Y.@.@.4.*+_.Z.$.# s O < e &.&.&.&.&.&.&.&.&.",
"e e e e e ^.} K 4+9 H -+#+[.S s K.S c+l.^ g U.0.p+e e e &.&.e e ",
"&.&.&.&.&.w.w 2.@ i.H u.:.E.|.,.5.0+y *.)+)+( P 7 |+&.e &.&.&.e ",
"&.&.&.e ^.} N.2.}.>+H 4.:.q+|.q.k  .h Q.3+Q.5+) '.7 p+e &.&.e &.",
"&.&.&.&.J./+N.@ }.>+H 4.:.;.S.y+~ n.h+Q.3+I.Z 9.P.A & &.&.&.&.&.",
"&.&.&.e `.n.2.2.@ i.H + @.;.S.y+,.n.=.Q.U I.9.d ).3 O &.&.&.e e ",
"e &.&.&.l D+k.k.v+` >+4.+ N W.;.` _.+.6 m.5+P.).f+; m &.&.&.&.e ",
"&.&.e &.w.B.o o %+'++ z.;.#.1 K.%+b : x+Q.U ) j f+4 H+e &.&.e &.",
"e &.&.e e n+M.M.[ l+G+v.B , h ~.7+(+A.u I.L d ).).c =+|+e &.&.&.",
"&.&.&.&.&.&.&.&...9 u.-+1 W.x._+k =.~+m.Z U P.P.f+Y 5 V H+e e e ",
"&.&.&.&.e e &./ Q >+u.s.W.f l.]+t+)+[+U 3+$+5+P.).f+j 9.>.- e e ",
"&.e e &.&.&.&.1+N.e._ @.1 e.S C.t+<.u+Q.Q.m.Z 9.D e+D U t J < &.",
"&.&.&.&.&.&.< } 4+>+_ s.]+d.@+|.G t+m.)+=.Q.Z (.(.d d $+F.b.' &.",
"&.&.&.e e &.w+2 >+j..+.+-+C+` E.m+B B 0+0+F.( x I.(.L U 0+b.H+e ",
"e &.&.&.&.^.M.h.^+X k.D+= &+ + +.  + + +.  +H.U U I.Z Z * o H+e ",
"&.&.&.&.^.p ] o.S S > = 7+;+>.x.7+X F+$.| | F U D.Z 3+$+| R.w+&.",
"e &.&.e |+(+w w 2.}.u._ u.H 4.:.#.|.++~ m.t+0 )+Q.3+Q.u o O < &.",
"&.&.&.&.M ^+w 2.4+9+>+>+i.9 e.z.#.#.b+1.<+k+m.~+m.0 1.>.a - &.e ",
"e e &.< i *+G.G.G.@ 2+` }.i.4.:.:.N |.|.r.1.q.h+6 -.!+a & &.&.e ",
"&.&.e / h.2+2+2+2+w N.2.@ >+4._ + s.E+i+}+, ++G E C+a 6+< &.e &.",
"&.&.&.|+> d+d+= ;+d+% % d.X k.X v+q $.v+2+A+o.%+a $ 1+< &.&.&.&.",
"e &.&.< 6+a+R.R a+R.R R.a+O.R.a+R.a+O.O.a+R ].a.0.w+&.e &.&.e e ",
"&.&.&.&.&.p+^./ ^.^./ / / ^.^.^.^./ / p+^.^.&.&.&.&.&.&.&.&.&.e ",
"&.&.e &.&.&.&.&.&.&.e &.e &.&.&.&.&.&.&.&.&.&.e &.&.&.&.&.&.e &."};
